<svg width="137" height="53" viewBox="0 0 272 104" fill="none"
  xmlns="http://www.w3.org/2000/svg">
  <rect width="137" height="53" fill="none"></rect>
  <path fill-rule="evenodd" clip-rule="evenodd" d="M271.611 43.4741C271.611 40.3715 269.394 38.0961 262.845 38.0961C255.453 38.0961 250.384 42.1299 250.384 47.8193C250.384 54.4401 258.622 59.5084 258.622 64.8882C258.622 67.7849 256.509 69.7502 253.445 69.7502C250.584 69.7502 247.833 68.1877 248.615 62.7438C249.196 61.7237 249.72 60.6441 250.173 59.5084L249.751 55.7849C248.59 54.4401 248.061 55.681 248.061 55.681C245.632 61.0603 240.352 66.2331 236.655 67.3707C235.177 67.888 233.91 68.0951 233.91 66.1292C233.804 62.3019 236.127 51.8537 238.029 43.7849C240.775 43.9919 244.893 44.0958 245.527 43.7849C246.266 43.3714 247.005 43.5785 248.061 38.923C246.688 39.0263 242.358 39.2339 238.979 39.4403C239.929 35.3027 240.563 32.0958 240.246 31.1644C239.613 28.889 236.022 26.7167 232.537 26.5101C232.199 31.3079 226.864 49.5999 224.74 59.5933C221.913 64.4396 218.191 68.138 215.219 67.888C214.268 67.7849 214.056 66.8535 214.373 64.6812C214.902 61.8883 218.175 48.8538 217.858 44.9227C217.647 41.5093 214.585 38.5095 210.572 38.1992C205.609 37.7852 201.278 40.7851 198.216 44.4061C199.905 35.6129 201.067 29.9235 201.7 24.5438C202.018 21.8542 198.216 18.9575 194.414 18.7511C195.365 20.3028 183.536 64.1645 184.698 68.3021C185.331 70.5777 189.767 73.3704 193.569 73.5776C193.252 72.75 193.463 70.6809 193.78 67.888C194.942 59.6123 198.427 48.5437 203.814 45.1303C206.982 43.0613 208.249 43.7849 208.249 45.9573C208.249 49.2674 204.763 62.4057 204.763 65.3017C204.763 68.6124 209.199 73.9915 213.211 73.9915C217.117 73.9915 221.115 71.644 224.414 67.4579C225.781 70.6117 229.515 73.9915 232.643 73.9915C236.001 73.9915 240.04 72.2211 243.563 69.0442C243.901 72.1211 246.471 73.9915 253.129 73.9915C262.528 73.9915 268.125 69.1291 268.125 62.6127C268.125 56.406 259.255 50.6127 259.255 45.5443C259.255 43.6817 260.628 42.0266 263.057 42.0266C265.908 42.0266 267.809 43.5785 266.753 49.1647C266.647 49.7852 266.858 50.0949 268.97 50.0949C270.449 47.1993 271.611 45.1303 271.611 43.4741ZM181.742 44.8195C181.742 40.3715 176.884 38.0961 172.976 38.0961C161.556 38.0961 151.794 49.5431 150.108 60.2495C147.379 64.7604 143.959 68.0197 141.084 67.7849C137.916 67.5773 145.519 46.2681 144.674 42.8541C144.04 40.5781 140.344 38.4058 136.859 38.1992C136.566 42.2917 133.629 51.067 131.858 57.9221C128.766 62.7271 122.048 67.3707 118.487 67.3707C111.807 67.3707 117.044 33.2459 123.064 17.9587C123.641 16.5899 128.368 2.91373 135.982 2.91373C143.866 2.91373 147.547 15.0481 148.353 20.6684C148.71 23.166 148.992 25.9778 148.382 28.2406C151.193 27.0001 147.57 -0.068258 133.871 1.03269C123.227 2.05549 117.49 13.3128 115.196 18.5831C109.042 32.7214 106.891 50.9553 106.891 50.9553L106.905 50.9286C106.47 53.7827 106.164 56.3926 106.02 58.6106C103.226 63.9648 99.2596 68.0516 95.9932 67.7849C92.4032 67.5773 98.5281 47.8193 98.4222 44.4061C98.3174 40.9921 94.9382 38.0961 89.6569 38.0961C76.5622 38.0961 66.6354 52.6812 66.6354 63.5434C66.6354 71.6117 70.9654 74.0948 75.8222 74.0948C81.1029 74.0948 84.5882 69.8533 86.8064 66.5432C88.812 71.302 91.347 73.6807 94.1982 73.8877C99.5963 74.3285 103.662 70.4789 106.472 66.2325C107.735 71.3321 111.1 73.9915 115.635 73.9915C119.842 73.9915 126.079 71.1094 130.622 66.2068C131.323 69.6563 135.704 74.0948 139.289 74.0948C143.21 74.0948 147.083 71.6374 150.296 67.3886C151.275 71.3248 153.949 73.9915 159.036 73.9915C162.944 73.9915 166.218 71.1981 168.33 68.3021L168.858 68.4054C168.013 71.095 167.274 73.7846 166.323 76.4741C156.607 77.6125 145.096 84.1295 145.096 94.8872C145.096 99.3357 148.053 102.232 152.594 102.232C171.604 102.232 181.742 59.302 181.742 44.8195ZM89.3407 44.4061C89.3407 49.5782 83.9541 68.0951 78.5679 68.0951C77.0904 68.0951 76.245 66.6471 76.245 64.4742C76.0335 57.44 80.7862 42.3363 87.3339 42.3363C88.4954 42.3363 89.3407 43.2677 89.3407 44.4061ZM172.659 45.0264C172.659 49.8885 168.013 67.9919 161.782 67.9919C159.776 67.9919 159.459 65.5093 159.459 63.9569C159.459 58.5778 163.472 42.3363 170.547 42.3363C172.132 42.3363 172.659 43.8882 172.659 45.0264ZM165.373 80.0951C163.894 84.8531 158.93 97.6806 152.911 97.6806C151.328 97.6806 151.01 96.1289 151.01 94.9911C151.01 88.5774 159.036 80.8193 165.373 80.0951ZM65.2625 44.7163C65.1571 40.9921 62.4114 38.0961 57.0259 38.0961C48.26 38.0961 38.8607 49.4749 37.8052 62.4057C37.383 69.1291 41.185 73.9915 47.6265 73.9915C53.6461 73.9915 59.3489 71.095 62.3061 67.4746L63.5729 63.6466C63.1503 61.9916 62.2001 62.8191 62.2001 62.8191C59.2436 65.4056 55.5471 67.7849 52.2739 67.7849C49.3161 67.7849 48.0487 65.1984 48.0487 61.4749V60.1301C57.2367 60.4404 65.6853 53.9229 65.2625 44.7163ZM48.5773 56.5086C49.8442 50.0949 53.2234 42.2337 57.0259 42.2337C61.8833 42.2337 58.5041 54.1293 48.5773 56.5086ZM35.9058 31.1644C37.5949 27.7506 38.8624 25.475 38.8624 23.5097C38.8624 20.0959 36.6442 17.303 27.8794 17.303C18.7974 17.303 10.2435 23.0957 10.2435 32.4055C10.2435 41.6132 22.2825 49.9916 22.2825 59.302C22.2825 64.5775 18.692 68.7155 12.7779 68.7155C7.8144 68.7155 4.96339 65.819 6.12435 59.5084C6.23081 58.682 6.0195 58.3706 3.2732 58.3706C1.37228 62.0949 0 65.0947 0 67.2676C0 71.9225 3.37907 73.9915 12.3552 73.9915C24.9224 73.9915 33.2656 66.5432 33.2656 56.9233C33.2656 46.8886 19.5368 37.268 19.5368 28.889C19.5368 24.8545 22.7047 21.9585 27.3514 21.9585C31.2592 21.9585 34.533 24.0265 33.371 30.0268C33.1595 30.8542 33.4763 31.1644 35.9058 31.1644Z" id="Fill-1" fill="#103D8D"></path>
  <path fill-rule="evenodd" clip-rule="evenodd" d="M149.093 25.2112C148.899 22.796 147.085 21.9462 145.427 21.8938C142.849 21.8224 140.409 24.6202 140.401 27.9509C140.384 30.0217 141.981 31.6082 144.195 31.708C147.693 31.7979 149.323 28.0726 149.093 25.2112Z" id="Fill-2" fill="#F7DC03"></path>
  <path d="M39.9078 97L38.6246 93.4316H33.7115L32.4547 97H30.2398L35.0475 84.0977H37.3326L42.1402 97H39.9078ZM38.0709 91.6211L36.8668 88.123C36.7789 87.8887 36.6559 87.5195 36.4977 87.0156C36.3453 86.5117 36.2398 86.1426 36.1813 85.9082C36.023 86.6289 35.7916 87.417 35.4869 88.2725L34.3268 91.6211H38.0709ZM55.4708 97H53.3702V85.9521H49.5909V84.1504H59.2501V85.9521H55.4708V97ZM67.1986 87.1035C67.6146 87.1035 67.9573 87.1328 68.2269 87.1914L68.0247 89.1162C67.7318 89.0459 67.4271 89.0107 67.1107 89.0107C66.2845 89.0107 65.6136 89.2803 65.098 89.8193C64.5882 90.3584 64.3333 91.0586 64.3333 91.9199V97H62.2679V87.2793H63.8851L64.1575 88.9932H64.263C64.5853 88.4131 65.0042 87.9531 65.5198 87.6133C66.0413 87.2734 66.6009 87.1035 67.1986 87.1035ZM73.3629 97H71.2974V87.2793H73.3629V97ZM71.1744 84.7041C71.1744 84.335 71.274 84.0508 71.4732 83.8516C71.6783 83.6523 71.9683 83.5527 72.3433 83.5527C72.7066 83.5527 72.9879 83.6523 73.1871 83.8516C73.3922 84.0508 73.4947 84.335 73.4947 84.7041C73.4947 85.0557 73.3922 85.334 73.1871 85.5391C72.9879 85.7383 72.7066 85.8379 72.3433 85.8379C71.9683 85.8379 71.6783 85.7383 71.4732 85.5391C71.274 85.334 71.1744 85.0557 71.1744 84.7041ZM81.5047 97.1758C80.034 97.1758 78.9148 96.748 78.1473 95.8926C77.3855 95.0312 77.0047 93.7979 77.0047 92.1924C77.0047 90.5576 77.4031 89.3008 78.2 88.4219C79.0027 87.543 80.16 87.1035 81.6717 87.1035C82.6971 87.1035 83.6199 87.2939 84.4402 87.6748L83.8162 89.3359C82.9432 88.9961 82.2225 88.8262 81.6541 88.8262C79.9725 88.8262 79.1316 89.9424 79.1316 92.1748C79.1316 93.2646 79.3396 94.085 79.7557 94.6357C80.1775 95.1807 80.7928 95.4531 81.6014 95.4531C82.5213 95.4531 83.3914 95.2246 84.2117 94.7676V96.5693C83.8426 96.7861 83.4471 96.9414 83.0252 97.0352C82.6092 97.1289 82.1023 97.1758 81.5047 97.1758ZM92.002 97.1758C90.4903 97.1758 89.3067 96.7363 88.4512 95.8574C87.6016 94.9727 87.1768 93.7568 87.1768 92.21C87.1768 90.6221 87.5723 89.374 88.3633 88.4658C89.1543 87.5576 90.2413 87.1035 91.6241 87.1035C92.9073 87.1035 93.9209 87.4932 94.6651 88.2725C95.4092 89.0518 95.7813 90.124 95.7813 91.4893V92.6055H89.3038C89.333 93.5488 89.5879 94.2754 90.0684 94.7852C90.5489 95.2891 91.2256 95.541 92.0987 95.541C92.6729 95.541 93.2061 95.4883 93.6983 95.3828C94.1963 95.2715 94.7295 95.0898 95.2979 94.8379V96.5166C94.794 96.7568 94.2842 96.9268 93.7686 97.0264C93.253 97.126 92.6641 97.1758 92.002 97.1758ZM91.6241 88.668C90.9678 88.668 90.4405 88.876 90.042 89.292C89.6495 89.708 89.4151 90.3145 89.3389 91.1113H93.751C93.7393 90.3086 93.5459 89.7021 93.1709 89.292C92.7959 88.876 92.2803 88.668 91.6241 88.668ZM107.94 97H105.866V91.0234C105.866 90.2734 105.713 89.7139 105.408 89.3447C105.11 88.9756 104.632 88.791 103.976 88.791C103.103 88.791 102.464 89.0488 102.06 89.5645C101.656 90.0801 101.453 90.9443 101.453 92.1572V97H99.388V87.2793H101.005L101.295 88.5537H101.401C101.694 88.0908 102.11 87.7334 102.649 87.4814C103.188 87.2295 103.785 87.1035 104.442 87.1035C106.774 87.1035 107.94 88.29 107.94 90.6631V97ZM115.695 95.5059C116.199 95.5059 116.703 95.4268 117.207 95.2686V96.8242C116.978 96.9238 116.682 97.0059 116.319 97.0703C115.961 97.1406 115.589 97.1758 115.203 97.1758C113.246 97.1758 112.267 96.1445 112.267 94.082V88.8438H110.94V87.9297L112.364 87.1738L113.067 85.1172H114.341V87.2793H117.11V88.8438H114.341V94.0469C114.341 94.5449 114.464 94.9141 114.71 95.1543C114.962 95.3887 115.291 95.5059 115.695 95.5059ZM122.483 97H120.418V87.2793H122.483V97ZM120.295 84.7041C120.295 84.335 120.394 84.0508 120.594 83.8516C120.799 83.6523 121.089 83.5527 121.464 83.5527C121.827 83.5527 122.108 83.6523 122.307 83.8516C122.512 84.0508 122.615 84.335 122.615 84.7041C122.615 85.0557 122.512 85.334 122.307 85.5391C122.108 85.7383 121.827 85.8379 121.464 85.8379C121.089 85.8379 120.799 85.7383 120.594 85.5391C120.394 85.334 120.295 85.0557 120.295 84.7041ZM133.235 94.2314C133.235 95.1807 132.89 95.9102 132.198 96.4199C131.507 96.9238 130.517 97.1758 129.228 97.1758C127.933 97.1758 126.893 96.9795 126.107 96.5869V94.8027C127.25 95.3301 128.313 95.5938 129.298 95.5938C130.569 95.5938 131.205 95.21 131.205 94.4424C131.205 94.1963 131.135 93.9912 130.994 93.8271C130.854 93.6631 130.622 93.4932 130.3 93.3174C129.978 93.1416 129.529 92.9424 128.955 92.7197C127.836 92.2861 127.077 91.8525 126.679 91.4189C126.286 90.9854 126.09 90.4229 126.09 89.7314C126.09 88.8994 126.424 88.2549 127.092 87.7979C127.766 87.335 128.68 87.1035 129.834 87.1035C130.977 87.1035 132.058 87.335 133.077 87.7979L132.409 89.3535C131.36 88.9199 130.479 88.7031 129.764 88.7031C128.674 88.7031 128.129 89.0137 128.129 89.6348C128.129 89.9395 128.27 90.1973 128.551 90.4082C128.838 90.6191 129.459 90.9092 130.414 91.2783C131.217 91.5889 131.8 91.873 132.163 92.1309C132.526 92.3887 132.796 92.6875 132.972 93.0273C133.147 93.3613 133.235 93.7627 133.235 94.2314Z" id="Fill-3" fill="#103D8D"></path>
  <path d="M180.979 97.1758C179.508 97.1758 178.389 96.748 177.622 95.8926C176.86 95.0312 176.479 93.7979 176.479 92.1924C176.479 90.5576 176.878 89.3008 177.674 88.4219C178.477 87.543 179.634 87.1035 181.146 87.1035C182.171 87.1035 183.094 87.2939 183.915 87.6748L183.291 89.3359C182.418 88.9961 181.697 88.8262 181.128 88.8262C179.447 88.8262 178.606 89.9424 178.606 92.1748C178.606 93.2646 178.814 94.085 179.23 94.6357C179.652 95.1807 180.267 95.4531 181.076 95.4531C181.996 95.4531 182.866 95.2246 183.686 94.7676V96.5693C183.317 96.7861 182.921 96.9414 182.5 97.0352C182.084 97.1289 181.577 97.1758 180.979 97.1758ZM195.853 92.1221C195.853 93.71 195.446 94.9492 194.632 95.8398C193.817 96.7305 192.683 97.1758 191.23 97.1758C190.322 97.1758 189.519 96.9707 188.822 96.5605C188.125 96.1504 187.589 95.5615 187.214 94.7939C186.839 94.0264 186.651 93.1357 186.651 92.1221C186.651 90.5459 187.055 89.3154 187.864 88.4307C188.673 87.5459 189.812 87.1035 191.283 87.1035C192.689 87.1035 193.803 87.5576 194.623 88.4658C195.443 89.3682 195.853 90.5869 195.853 92.1221ZM188.778 92.1221C188.778 94.3662 189.607 95.4883 191.265 95.4883C192.906 95.4883 193.726 94.3662 193.726 92.1221C193.726 89.9014 192.9 88.791 191.248 88.791C190.381 88.791 189.751 89.0781 189.358 89.6523C188.971 90.2266 188.778 91.0498 188.778 92.1221ZM207.687 97H205.612V91.0059C205.612 90.2617 205.472 89.708 205.19 89.3447C204.909 88.9756 204.47 88.791 203.872 88.791C203.075 88.791 202.489 89.0518 202.114 89.5732C201.745 90.0889 201.561 90.9502 201.561 92.1572V97H199.495V87.2793H201.112L201.402 88.5537H201.508C201.777 88.0908 202.167 87.7334 202.677 87.4814C203.192 87.2295 203.758 87.1035 204.373 87.1035C205.867 87.1035 206.857 87.6133 207.344 88.6328H207.484C207.772 88.1523 208.176 87.7773 208.697 87.5078C209.219 87.2383 209.816 87.1035 210.49 87.1035C211.65 87.1035 212.494 87.3965 213.022 87.9824C213.555 88.5684 213.821 89.4619 213.821 90.6631V97H211.756V91.0059C211.756 90.2617 211.612 89.708 211.325 89.3447C211.044 88.9756 210.605 88.791 210.007 88.791C209.204 88.791 208.615 89.043 208.24 89.5469C207.871 90.0449 207.687 90.8125 207.687 91.8496V97ZM222.895 97.1758C221.664 97.1758 220.709 96.7334 220.03 95.8486H219.907C219.989 96.6689 220.03 97.167 220.03 97.3428V101.324H217.964V87.2793H219.634C219.681 87.4609 219.778 87.8945 219.924 88.5801H220.03C220.674 87.5957 221.641 87.1035 222.93 87.1035C224.143 87.1035 225.086 87.543 225.76 88.4219C226.44 89.3008 226.78 90.5342 226.78 92.1221C226.78 93.71 226.434 94.9492 225.742 95.8398C225.057 96.7305 224.108 97.1758 222.895 97.1758ZM222.394 88.791C221.574 88.791 220.973 89.0312 220.592 89.5117C220.217 89.9922 220.03 90.7598 220.03 91.8145V92.1221C220.03 93.3057 220.217 94.1641 220.592 94.6973C220.967 95.2246 221.579 95.4883 222.429 95.4883C223.144 95.4883 223.695 95.1953 224.081 94.6094C224.468 94.0234 224.661 93.1885 224.661 92.1045C224.661 91.0146 224.468 90.1914 224.081 89.6348C223.7 89.0723 223.138 88.791 222.394 88.791ZM236.521 97L236.108 95.6465H236.038C235.569 96.2383 235.097 96.6426 234.623 96.8594C234.148 97.0703 233.539 97.1758 232.794 97.1758C231.839 97.1758 231.092 96.918 230.553 96.4023C230.02 95.8867 229.753 95.1572 229.753 94.2139C229.753 93.2119 230.126 92.4561 230.87 91.9463C231.614 91.4365 232.748 91.1582 234.271 91.1113L235.95 91.0586V90.54C235.95 89.9189 235.803 89.4561 235.51 89.1514C235.223 88.8408 234.775 88.6855 234.166 88.6855C233.668 88.6855 233.19 88.7588 232.733 88.9053C232.276 89.0518 231.836 89.2246 231.415 89.4238L230.747 87.9473C231.274 87.6719 231.851 87.4639 232.478 87.3232C233.105 87.1768 233.697 87.1035 234.253 87.1035C235.49 87.1035 236.421 87.373 237.048 87.9121C237.681 88.4512 237.998 89.2979 237.998 90.4521V97H236.521ZM233.445 95.5938C234.195 95.5938 234.795 95.3857 235.247 94.9697C235.704 94.5479 235.932 93.959 235.932 93.2031V92.3594L234.684 92.4121C233.711 92.4473 233.002 92.6113 232.557 92.9043C232.118 93.1914 231.898 93.6338 231.898 94.2314C231.898 94.665 232.027 95.002 232.285 95.2422C232.543 95.4766 232.929 95.5938 233.445 95.5938ZM250.692 97H248.618V91.0234C248.618 90.2734 248.466 89.7139 248.161 89.3447C247.862 88.9756 247.385 88.791 246.728 88.791C245.855 88.791 245.217 89.0488 244.812 89.5645C244.408 90.0801 244.206 90.9443 244.206 92.1572V97H242.14V87.2793H243.758L244.048 88.5537H244.153C244.446 88.0908 244.862 87.7334 245.401 87.4814C245.94 87.2295 246.538 87.1035 247.194 87.1035C249.526 87.1035 250.692 88.29 250.692 90.6631V97ZM253.35 87.2793H255.6L257.577 92.79C257.876 93.5752 258.075 94.3135 258.175 95.0049H258.245C258.298 94.6826 258.395 94.293 258.535 93.8359C258.676 93.373 259.42 91.1875 260.768 87.2793H263L258.843 98.292C258.087 100.313 256.827 101.324 255.063 101.324C254.606 101.324 254.161 101.274 253.728 101.175V99.54C254.038 99.6104 254.393 99.6455 254.791 99.6455C255.787 99.6455 256.487 99.0684 256.892 97.9141L257.252 97L253.35 87.2793Z" id="Fill-4" fill="#103D8D"></path>
</svg>
